
<svg width="1728" height="501" fill="none" xmlns="http://www.w3.org/2000/svg"><path d="m0 244.21 36 8.52c36 9.05 108 25.27 180 8.65 72-17.17 144-68.52 216-60.01 72 9.06 144 76.63 216 51.36C720 226.64 792 107.7 864 47.3c72-59.87 144-59.87 216-17.03 72 42.3 144 128.8 216 136.9 72 8.12 144-59.46 216-51.35 72 8.1 144 94.6 216 111.23 72 17.16 144-34.2 216-8.52 72 25.68 144 128.4 216 154.08 72 25.68 144-25.68 216-59.88 72-34.73 144-50.95 216-85.68 72-34.2 144-85.55 216-102.72 72-16.62 144-.4 216 51.36 72 50.95 144 137.45 216 111.37 72-25.28 144-163.13 216-205.43 72-42.85 144 8.51 216 77.03 72 67.98 144 154.48 216 196.78 72 42.85 144 42.85 216 0 72-42.3 144-128.8 216-136.9 72-8.11 144 59.46 216 68.52 72 8.51 144-42.85 216-51.36 72-9.06 144 26.08 216 42.7 72 17.17 144 17.17 180 17.17h36V501H0V244.21Z" fill="url(#a)"/><defs><linearGradient id="a" x1="0" y1="501" x2="0" y2="0" gradientUnits="userSpaceOnUse"><stop stop-color="#99565E"/><stop offset="1" stop-color="#99565E" stop-opacity=".44"/></linearGradient></defs></svg>