
<svg width="1728" height="355" fill="none" xmlns="http://www.w3.org/2000/svg"><path d="m-4 125.2 48.194-19.15C92.39 86.9 188.778 48.6 285.167 23.04c96.389-25.246 192.777-38.534 289.166 12.82C670.722 86.9 767.111 201.8 863.5 227.358c96.389 25.247 192.78-38.065 289.17-38.3 96.39.235 192.77 63.547 289.16 63.782 96.39-.235 192.78-63.547 289.17-108.491 96.39-44.944 192.78-69.956 289.17-44.71 96.39 25.56 192.77 102.16 289.16 146.869 96.39 44.397 192.78 57.685 289.17 12.741 96.39-44.944 192.78-146.556 289.17-165.94 96.39-18.916 192.77 44.396 289.16 70.19 96.39 25.794 192.78 12.506 289.17 12.741 96.39-.235 192.78 13.053 289.17 12.818 96.39.235 192.77-13.053 289.16-44.709 96.39-31.656 192.78-83.244 289.17-70.19 96.39 12.74 192.78 89.34 289.17 102.081 96.39 13.053 192.77-38.535 289.16-38.3 96.39-.235 192.78 51.353 289.17 63.859 96.39 12.506 192.78-12.506 289.17 0 96.39 12.506 192.77 64.094 289.16 89.341 96.39 25.559 192.78 25.559 289.17 25.559 96.39 0 192.78 0 289.17-12.741 96.39-13.053 192.77-38.065 289.16-89.418C6743.22 163.5 6839.61 86.9 6887.81 48.6L6936 10.3V355H-4V125.2Z" fill="url(#a)"/><defs><linearGradient id="a" x1="-4" y1="355" x2="-4" y2=".725" gradientUnits="userSpaceOnUse"><stop stop-color="#99565E"/><stop offset="1" stop-color="#F3F8D8"/></linearGradient></defs></svg>