<?xml version="1.0" standalone="no"?>
<svg id="wave" style="transform:rotate(0deg); transition: 0.3s" viewBox="0 0 1440 490" version="1.1" xmlns="http://www.w3.org/2000/svg"><defs><linearGradient id="sw-gradient-0" x1="0" x2="0" y1="1" y2="0"><stop stop-color="rgba(153, 86, 94, 1)" offset="0%"/><stop stop-color="rgba(243, 248, 216, 1)" offset="100%"/></linearGradient></defs><path style="transform:translate(0, 0px); opacity:1" fill="url(#sw-gradient-0)" d="M0,196L40,171.5C80,147,160,98,240,65.3C320,33,400,16,480,81.7C560,147,640,294,720,326.7C800,359,880,278,960,277.7C1040,278,1120,359,1200,359.3C1280,359,1360,278,1440,220.5C1520,163,1600,131,1680,163.3C1760,196,1840,294,1920,351.2C2000,408,2080,425,2160,367.5C2240,310,2320,180,2400,155.2C2480,131,2560,212,2640,245C2720,278,2800,261,2880,261.3C2960,261,3040,278,3120,277.7C3200,278,3280,261,3360,220.5C3440,180,3520,114,3600,130.7C3680,147,3760,245,3840,261.3C3920,278,4000,212,4080,212.3C4160,212,4240,278,4320,294C4400,310,4480,278,4560,294C4640,310,4720,376,4800,408.3C4880,441,4960,441,5040,441C5120,441,5200,441,5280,424.7C5360,408,5440,376,5520,310.3C5600,245,5680,147,5720,98L5760,49L5760,490L5720,490C5680,490,5600,490,5520,490C5440,490,5360,490,5280,490C5200,490,5120,490,5040,490C4960,490,4880,490,4800,490C4720,490,4640,490,4560,490C4480,490,4400,490,4320,490C4240,490,4160,490,4080,490C4000,490,3920,490,3840,490C3760,490,3680,490,3600,490C3520,490,3440,490,3360,490C3280,490,3200,490,3120,490C3040,490,2960,490,2880,490C2800,490,2720,490,2640,490C2560,490,2480,490,2400,490C2320,490,2240,490,2160,490C2080,490,2000,490,1920,490C1840,490,1760,490,1680,490C1600,490,1520,490,1440,490C1360,490,1280,490,1200,490C1120,490,1040,490,960,490C880,490,800,490,720,490C640,490,560,490,480,490C400,490,320,490,240,490C160,490,80,490,40,490L0,490Z"/></svg>