<?xml version="1.0" encoding="UTF-8"?>
<svg id="Layer_1" data-name="Layer 1" xmlns="http://www.w3.org/2000/svg" viewBox="0 0 1024 1024">
  <defs>
    <style>
      .cls-1 {
        fill: #f7ae5f;
      }

      .cls-1, .cls-2, .cls-3, .cls-4, .cls-5, .cls-6 {
        
      }

      .cls-2 {
        fill: #4d2715;
      }

      .cls-3 {
        fill: #472714;
      }

      .cls-4 {
        fill: #c86730;
      }

      .cls-5 {
        fill: #944717;
      }

      .cls-6 {
        fill: #fcf0d1;
      }
    </style>
  </defs>
  <g>
    <path class="cls-2" d="M93.41,491.76c22.27.06,43.64,5.57,65.18,10.26,12.85,2.8,25.74,6.6,39.14,3.25,2.43-.61,4.76-1.6,7.19-2.23,4.06-1.06,5.33-3.54,5.7-7.74,2.37-27.34,20.01-48.3,44.49-52.69,9.07-1.63,18.35-2.05,27.51-3.19,47.49-5.94,95.32-8.17,142.89-13.29,39.85-4.29,79.86-7.01,119.78-10.72,35.3-3.29,70.55-7.18,105.85-10.45,37.19-3.44,74.43-6.47,111.64-9.65,5.85-.5,11.71-.98,17.58-1.27,22.87-1.12,38.84,9.55,49.41,29.21,7.03,13.08,22.92,20.7,37.52,18.1,10.76-1.92,19.99-7.2,29.14-12.69,19.52-11.71,40.36-18.27,63.39-16.64,23.51,1.67,41.87,17.03,44.96,37.74,3.34,22.42-9.07,42.78-30.66,50.31-26.69,9.31-53.27,6.89-79.79-.78-7.05-2.04-14.04-4.17-21.4-4.96-17.75-1.92-31.77,7.78-35.91,25.06-5.78,24.16-20.74,37.94-45.29,41.63-5.19.78-10.4,1.38-15.61,1.99-66.44,7.87-132.86,15.86-199.32,23.55-46.87,5.42-93.81,10.24-140.69,15.67-47.7,5.52-95.34,11.58-143.05,17.1-12.85,1.49-25.96,3.87-38.7-.39-20.82-6.96-32.89-22.23-39.06-42.72-2.95-9.8-2.92-9.52-13.16-10.7-16.78-1.93-31.78,3.99-46.78,9.96-21.76,8.66-44.29,14.34-67.48,17.05-19.53,2.28-38.38-.71-54.27-13.14-26.23-20.52-21.64-59.5,8.69-76.9,15.86-9.1,33.38-10.51,51.1-10.72ZM809.52,481.1c-.41,1.8-.64,3.6.31,5.32.05,1.08.11,2.16.16,3.23-1.22,2.16-.72,4.53-.65,6.78.35,12-1.01,23.78-3.83,35.46-1.39,5.76-5.42,10.65-5.84,17.39,6.72-2.6,12.73-5.28,16.59-10.77,12.91-18.38,18.34-39.03,17.98-61.34,1.15-4.29-.92-8.3-1.07-12.47.03-.84-.48-1.18-1.21-1.32l.16.06c-.73-18-6.64-33.86-19.19-47.08-10.13-10.68-22.71-12.77-37.11-11.66,25.92,33.47,31.1,44.43,33.77,71.13-.02,1.76-.05,3.52-.07,5.28ZM794.12,534.11c.45-.44.9-.88,1.36-1.32,1.96-1.64.9-4,1.4-5.98,3.53-9.43,5.79-19.08,4.9-29.25,1.59-12.86-.36-25.42-3.2-37.91-3.75-15.43-11.2-28.92-21.99-40.43-8.59-9.15-18.65-14.68-32.03-11.7-5.88,1.31-12.08,1.2-18.13,1.73-22.35,1.97-44.72,3.81-67.06,5.96-25.35,2.45-50.65,5.38-76.01,7.76-34.64,3.25-69.31,6.13-103.97,9.25-45.74,4.12-91.47,8.35-137.21,12.48-14.72,1.33-29.45,2.48-44.95,3.77,2.74,2.92,4.84,5.16,6.95,7.4-3.13-.64-5.08,2.35-7.93,2.58-12.01-9.44-17.62-10.71-27.5-6.12,10.83,8.25,18.5,18.75,23.46,31.31,9.03,22.86,11.52,46.6,9.86,70.93-2.24,10.36-4.49,20.72-6.73,31.08-4.56,6.9-6.63,15.2-12.21,21.55-1.11,1.26-.3,2.08,1.31,2.48,5.46,1.36,18.33-2.9,21.18-7.77,4.62-7.89,8.45-16.2,10.5-25.2,2.71-5.98,3.38-12.52,5.07-18.78.18-.09.51-.23.5-.27-.08-.32-.24-.62-.37-.92.18-1.61.36-3.21.55-4.82,2.31-.04,4.62-.08,6.93-.12-.38,2.5-.76,5.01-1.14,7.51-.37.46-1,.89-1.06,1.4-1.93,15.1-3.31,30.34-11.76,43.7-.1.16.26.63.4.92,29.28-3.58,58.54-7.27,87.82-10.72,23.49-2.76,47.03-5.13,70.52-7.84,34.53-3.99,69.03-8.15,103.55-12.2,36.8-4.33,73.6-8.63,110.41-12.92,28.69-3.34,57.38-6.68,86.08-9.96,13.67-1.56,18.53-5.64,20.57-17.62l-.08.03ZM292.26,547.79v-12.4c-2.5.55-4.31.95-6.13,1.35-.42.02-.84.03-1.26.05-5.57-.82-8.08.68-8.1,7.2-.01,6.99-.75,14.13-3.16,20.97-5.68,16.1-18.81,21.43-33.81,13.4-3.5-1.88-6.86-4.02-10.37-5.89-.81-.43-2.16-.65-2.9-.27-1.14.59-.45,1.82-.12,2.78,4.22,12.54,11.41,22.88,23.1,29.39,7.45,4.15,15.43,4.9,22.1-1.58,5.69-5.53,10.64-11.81,12.76-19.77,4.66-11.28,7.97-22.87,7.89-35.22ZM256.17,543.86c-.71,7.38-2.71,14.42-6.19,20.95-2.28,4.29-.58,5.09,3.4,4.69,5.41-.54,8.84-3.62,10.81-8.42,2.92-7.12,3.91-14.53,2.73-22.19.04-2.44.08-4.88.13-7.32.23-11.09-3.23-20.93-10.23-29.47-3.46-4.22-7.75-7-13.6-6.09-1.21.19-2.69.05-3.22,1.45-.56,1.48.77,2.27,1.69,2.99,4.91,3.82,8.37,8.67,10.7,14.4,2.28,9.54,3.6,19.21,3.78,29.02ZM234.54,466.98c-5.91,5.44-9,12.54-11.32,19.97-.56,1.79-2.33,4.22-.17,5.82,1.75,1.3,3.44-.73,5.05-1.51,4.34-2.1,8.63-4.15,13.37-5.37,8.5-2.2,15.36.5,21.02,6.53,8.35,8.89,12.24,19.92,13.5,31.8.94,8.87.6,8.9,8.96,7.11,6.35.57,8.65-2.28,7.43-8.49-1.05-5.34-1.48-10.81-2.7-16.11-3.6-15.7-8.73-30.65-21.29-41.86-12.54-11.19-22.58-10.64-33.85,2.09ZM246.08,541.85c.06-1.05.13-2.1.19-3.15.54-1.25.51-2.49-.07-3.71-.28-10.29-3.31-19.56-9.62-27.83-2.94-3.85-5.48-4.61-9.89-1.92-16.82,10.26-34.91,13.43-54.3,8.94-11.61-2.68-23.35-4.85-35.03-7.21-22.75-4.59-45.65-6.74-68.73-3.09-13.59,2.15-25.85,7.1-33.47,19.66-2.29,1.61-2.92,4.23-3.99,6.58-7.88,18.78,1.08,39.3,20.62,46.64,9.49,3.56,19.41,5.29,29.58,5.13,25.54-.39,49.46-8.35,73.29-16.29,16.98-5.66,33.78-11.8,52.06-10.08,7.9.75,15.75,2.22,23.54,3.77,11.23,2.22,12.58,1.82,15.51-12.39.25-1.22.13-2.51.18-3.77.04-.43.08-.86.12-1.29ZM844.46,461.67c-.16,4.9-.28,9.8,1.11,14.58-1.08,4.66-1.19,9.34-.75,14.56,1.48-.58,2.53-.8,3.36-1.35,11.04-7.5,22.78-6.87,35.02-3.64,20.72,5.48,41.63,9.77,63.31,7.96,12.08-1.01,23.81-3.18,33.65-10.76,9.62-7.41,15.41-16.86,13.32-29.67-.07-.91-.13-1.81-.2-2.71.27-2.1.06-4.1-.58-6.16-3.52-11.39-16.46-20.39-30.44-21.54-23.87-1.98-45.33,5.07-65.8,16.59-17.38,9.78-35.18,17.29-55.05,6.42-.22-.12-.72.26-1.45.54,1.47,5.05,1.57,10.5,4.51,15.18Z"/>
    <path class="cls-1" d="M445.09,659.09c-.08-.74-.15-1.49-.23-2.23,0,0,0,.24,0,.24.62-7.12,5.37-12.11,13.46-14.45,13.78-3.98,26.41-.06,38.76,5.58,7.98,3.65,15.64,8,22.64,13.26,3.37,2.53,5.66,2.28,8.87.07,10.35-7.09,21.1-13.61,32.88-17.98,13.28-4.93,26.74-6.74,40,.49,2.07,1.13,4.02,2.4,5.28,4.34,1.72,2.65,3.2,5.28.3,8.44-3.35,3.65-5.04.45-7.12-1.26-7.81-6.44-17.05-5.49-25.67-3.7-12.12,2.52-23.13,8.13-33.02,15.87-4.26,3.33-2.98,5.28.84,7.2,14.29,7.18,28.55,13.76,45.38,8.43,6.02-1.91,7.34,3.81,8.75,8.2-7.84,6.82-16.83,10.03-27.27,8.69-7.11-.91-13.94-2.75-20.49-5.74-17.03-7.78-32.65-18.01-48.47-27.89-17.21-10.75-35.15-15.65-54.91-7.55Z"/>
    <path class="cls-2" d="M445.09,659.09c19.77-8.1,37.7-3.2,54.91,7.55,15.82,9.88,31.43,20.11,48.47,27.89,6.55,2.99,13.38,4.82,20.49,5.74,10.44,1.34,19.43-1.87,27.27-8.69,3.29,6.69-1.46,10.31-5.8,13.29-8.12,5.58-17.55,4.83-26.74,3.82-14.95-1.65-27.8-8.67-40.38-16.36-3.49-2.13-6.66-5.28-11.28-4.95-3.48-3.05-7.38-5.47-11.43-7.67-6.84-8.45-30.51-20.3-44.83-15.06-7.21,2.64-9.71.86-10.67-5.56Z"/>
    <path class="cls-1" d="M543.38,344.48c-.84,15.37-16,32.47-30.11,35.06-3.64.67-6.68-.66-9.56-2.23-11.18-6.09-18.78-15.24-21.91-27.67-.88-3.49-2.15-7.76,1.68-10.41,3.53-2.45,6.96-.11,9.89,1.73,8.83,5.53,13.1,14.38,16.54,23.74.53,1.44-.11,3.9,2.28,3.83,2.16-.06,2.09-2.45,2.44-3.92,2.41-10.13,7.35-18.57,15.86-24.77,3.02-2.2,6.47-3.67,9.96-2.17,3.07,1.32,2.93,4.74,2.92,6.81Z"/>
    <path class="cls-1" d="M500.59,679.71c4.05,2.2,7.95,4.61,11.43,7.67-10.97,10.37-24.57,15.14-38.93,18.38-8.89,2-17.41,1.05-25.76-2.49-3.21-1.36-5.8-3.41-7.84-6.1-1.93-2.54-3.75-5.58-1.22-8.53,2.43-2.83,5.66-1.29,8,.29,5.63,3.8,11.75,4.81,18.39,5.11,14.24.63,25.17-6.49,35.92-14.32Z"/>
    <path class="cls-1" d="M500.92,325.56c.57-6.25,1.44-11.38,5.04-15.56,3.72-4.31,6.51-4.3,10.34-.02,6.29,7.05,7.19,20.95,1.55,29.94-1.7,2.71-2.77,7.4-6.08,7.27-3.58-.14-4.64-4.78-6.38-7.8-2.65-4.6-4.3-9.48-4.46-13.82Z"/>
    <path class="cls-4" d="M675.3,652.64c5.1-.15,10.14,4.57,10.36,9.71.25,5.66-4.6,11.21-10.06,11.53-4.64.27-10.65-5.35-10.99-10.26-.34-5.02,5.3-10.82,10.68-10.98Z"/>
    <path class="cls-4" d="M454.68,363.62c-.03,6.05-4.69,10.8-10.57,10.77-5.15-.02-10.56-5.58-10.34-10.63.21-5.07,5.58-9.97,10.97-10.02,5.24-.05,9.97,4.64,9.94,9.87Z"/>
    <path class="cls-4" d="M372.14,383.63c.15,5.27-5,10.44-10.43,10.47-5.23.03-10.07-4.82-10.07-10.09,0-5.03,4.93-10.28,9.89-10.51,5.67-.27,10.45,4.29,10.61,10.13Z"/>
    <path class="cls-4" d="M575.95,360.2c.03-5.9,4.03-10.12,9.55-10.09,4.87.03,10.05,5.7,9.96,10.91-.1,6.09-4.48,10.52-10.19,10.29-5.67-.23-9.36-4.63-9.33-11.11Z"/>
    <path class="cls-4" d="M359.16,687.66c.03-5.95,4.06-10.04,9.65-9.81,4.86.2,9.44,5.4,9.37,10.63-.07,5.37-4.29,9.83-9.22,9.75-5.82-.09-9.82-4.42-9.79-10.58Z"/>
    <path class="cls-4" d="M752.59,631.01c5.53-.04,9.88,3.97,9.91,9.12.03,5.56-4,9.87-9.13,9.79-5.41-.09-9.94-4.2-10.07-9.16-.14-5.17,4.19-9.72,9.3-9.75Z"/>
    <polygon class="cls-2" points="444.86 657.11 444.86 656.87 444.32 656.98 444.86 657.11"/>
    <path class="cls-1" d="M798.58,459.65c2.84,12.49,4.8,25.05,3.2,37.91-2.32-3.23-4.18-4.96-6.49.32-2.09,4.78-5.62,8.74-9.47,12.34-8.44,7.9-18.28,13.74-28.29,19.35-7.46,2.17-14.59,5.58-22.48,6.21-3.7.42-7.4.82-11.1,1.27-26.18,3.19-50.94-.63-73.56-14.94.38-2.44-.98-3.74-2.92-4.88-3.52-2.06-6.94-4.3-10.4-6.47-3.06-1.92-4.27-4.04-.68-6.65,3.67,2.01,7.43,3.86,10.99,6.04,25.56,15.66,52.93,22.96,82.88,17.57,24.09-4.34,44.56-14.58,57.04-36.94,1.74-3.11,3.52-6.35,2.58-10.92-5.59,4.69-8.21,10.85-12.76,15.43-23.88,23.97-52.86,29.81-85.13,24.3-16.8-2.87-31.78-10.21-46.49-18.41-10.42-5.81-21.13-11.16-32.61-14.69-3.89-1.2-7.38-1.23-6.49,4.6-.85,4.98,1.17,7.78,5.78,10.17,6.92,3.59,14.46,6.21,20.39,11.56-1.04.16-2.47.53-1.41,1.75,1.47,1.7,3.79,2.69,5.15,4.44,2.14,2.75,6.96,4.4,6.27,8.04-.66,3.51.41,5.95,1.52,8.76-9.04-3.14-17.15-8.09-25.31-12.96-1.31-.78-2.7-2.41-4.4-.76-1.79,1.74.01,2.94.85,4.25-4.24,3.33-10.02,4.26-13.73,8.28-8.3,9-19.51,11.55-30.61,14.63-11.08,3.07-22.59,1.16-33.63,2.94-19.13,3.09-38.02,7.73-57.26,10.25-10.53,1.38-21.02,2.56-31.8.88-9.54-1.49-18.97-1.95-28.71,2.43-10.94,4.92-22.93,8.13-35.36,7.15-19.53-1.54-37.81-8.37-56.47-13.57.38-2.5.76-5.01,1.14-7.51,1.56-7.82.38-15.64-.19-23.43-.14-1.96.6-5.42-3.31-5.54-4.64-.23-8.27,2.92-12.6,3.74-.61-14.64-2.15-29.11-8.23-42.69,2.41-.89,3.29.67,4.42,1.88,2.16,2.29,3.93,2.13,5.04-1.01,1.9-.39,3.79-.78,5.69-1.18,6.55,2.39,12.66-.48,18.76-1.93,12.76-3.05,25.6-5.19,38.74-5.4,3.55,1.85,8.09.84,11.24,3.85-1.13.79-3.1,1.47-3.21,2.38-.26,2.06,2.04,2.37,3.49,2.92,5.84,2.25,11.81,4.14,17.6,6.5,14.43,5.88,26.95,15.03,39.84,23.54,3.51,2.32,7.03,4.59,11.17,5.55,1.91.44,4.17,1.53,5.36-1.3,1.2-1.87,4.17-3.19.82-6.03-12.38-10.49-26.06-19.06-39.73-27.67-.07-2.08-3.07-2.49-2.75-4.8,12.8,1.16,23.93,7.07,34.85,13.04,17.42,9.54,34.45,19.8,53.55,25.81,21.3,6.7,42.74,8.36,63.83-.27,7.1-2.9,14.9-6.42,15.42-16.18.33-.98.51-2.04,1.02-2.92,7.66-13.25,3.27-27.94-10.29-34.34-13.84-6.53-29.96-.59-35.15,12.96-3.22,8.4-1.18,17.19,4.75,20.29,1.43-2.09-.1-4.01-.37-5.98-1.4-10.31,4.32-20.19,13.05-22.46,9.86-2.56,20.87,2.05,23.98,10.11,1.88,4.88,1.42,9.72.19,14.77-1.39,5.72-6.79,4.8-10.19,7.13-15.25,10.42-31.99,9.95-49.01,6.39-21.92-4.59-40.8-16.05-59.82-27.12-16.59-9.65-33.89-17.03-53.22-19.42-9.78-1.21-19.58-1.47-29.34-2.49,1.34-4.54,6.04-4.09,8.72-4.19,26.3-.96,52.2,1.4,76.25,13.31,9.12,4.51,17.75,10,26.67,14.93,1.73.95,4.25,3.43,4.83-1.16,2.9-2.02,2.31-4.45.98-7.12-3.12-6.27-8.53-9.89-14.31-13.41-8.38-5.1-18.08-7.15-26.53-12.01.8-.17,1.63-.59,2.38-.46,15.46,2.54,29.55,9.9,45.59,12.07-2.63,3.76-5.35,6.61-4.74,10.78.23,1.59-.73,3.84,1,4.62,2.24,1.01,3.48-1.41,4.21-2.81,3.18-6.08,8.32-10.06,14.22-12.74,24.26-11.04,49.04-10.81,74.08-2.71,21.63,7,41.54,17.73,61.73,27.92,20.44,10.32,41.21,19.82,65.29,16.32,17.93-2.6,33.33-9.57,44.79-23.94,4.62-5.79,4.22-6.39-3.23-7.85,0-1.09,1.96-2.23.25-3.18-2.01-1.12-3.58.29-4.89,1.65-4.77,4.94-9.74,9.57-16.38,11.94l.06-7.95c2.49-2.44,3.42-5.55,2.07-8.61-5.27-11.98-13.86-20.54-26.27-25.31-11.02-4.24-22.53-5.28-34.11-6.17,2.79-2.15,6.08-.97,9.13-1.35,20.73-2.62,40.73.71,60.42,7.21,14.81,4.89,27.93,13.32,42.19,19.34ZM790.27,462.16l.11.12c-1.16-1.82-2.88-2.97-4.67-4.1-9.87-6.22-21.51-8.03-31.94-12.85-1.35-.62-2.56-.16-3.27.99-.95,1.54.06,2.74,1.08,3.84-3.98,5.55.92,8.07,4.12,10.37,9.71,6.95,21.52,7.69,32.73,10.03,3.06.64,7.63,2.59,9.08-.89,1.7-4.07-4.06-4.2-6.01-6.59-.41-.31-.82-.62-1.23-.93ZM509.67,544.71c3.93-1.48,7.68-3.19,9.79-8.19-4.21.78-7.45,1.7-10.27,3.86-12.78,3.9-25.7,7.05-39.16,7.49-2.34.08-4.83.82-4.9,3.76-.05,2.2,2.11,2.45,3.7,2.47,14.36.16,28.25-1.83,40.85-9.39ZM429.58,518.6c.34-5.64-4.12-4.67-7-4.46-12.03.88-22.77,5.06-31.34,13.89-2.15,2.21-4.31,4.45-4.19,9.1,3.6-2.14,6.42-4.18,9.53-5.56,4.1-1.82,6.77-6.32,11.83-6.25-.36,1.38-.73,2.77-1.26,4.8,4.91-1.73,6.92-.19,6.24,4.69-.23,1.63.26,3.47,2.19,4.08,1.63.52,2.74-.69,3.84-1.64,2.9-2.47,5.52-5.32,7.06-8.73,1.41-3.12,5.61-5.55,3.1-9.93ZM326.28,512.44c1.08,3.26-.76,8.91,6.36,6.98,17.32-4.69,34.69-4.77,52.02.09,3.5.98,7.25.89,8.93-2.42,1.69-3.34-3.91-2.29-4.26-4.97,1.68-2.36-.04-3.2-1.76-4.2-20.18-11.6-41.19-8.55-62.29-3.52-1.67.4-2.73,1.79-2.48,3.86.26,2.23.57,4.25,3.49,4.18ZM385.09,564.36c3.13.59,7.88-.74,12.63-1.35,20.65-2.62,39.12-10.38,54.69-24.44,1.13-1.02,3.32-2.15,1.91-3.97-1.19-1.53-3.16-.49-4.6.36-4.15,2.44-8.13,5.22-12.38,7.47-26.59,14.13-54.08,20.04-83.35,8.75-3.71-1.43-7.35-3.06-11.04-4.56-1.09-.44-2.29-1.57-3.41-.37-1.29,1.39-.38,2.88.57,3.93,1.22,1.36,2.64,2.67,4.22,3.58,12.06,6.94,25.12,10.23,40.75,10.6ZM551.89,541.88c9.55,0,18.86-1.57,27.83-4.65,8.57-2.95,16.54-7.18,23.36-13.3,1.27-1.14,2.69-2.73,1.64-4.34-1.11-1.7-3.02-.79-4.53.03-1.84,1-3.67,2.03-5.47,3.1-12.81,7.61-26.29,13.02-41.52,13-3.55,0-7.1.61-10.65.94-1.5.14-3.43.38-3.63,1.89-.29,2.2,2.02,2.54,3.54,2.74,3.11.42,6.28.42,9.42.59ZM349.08,530.31c-2.69.26-5.23,1.01-5.02,4.23.25,3.79,3.19,5.15,6.51,5.28,2.94.11,4.76-1.7,4.52-4.65-.29-3.47-2.73-4.82-6-4.85ZM381.07,487.32c-1.12.55-4.28-1.16-4.71,1.55-.41,2.54,2.73,2.76,4.61,3.21,3.24.76,6.57,1.2,9.88,1.57,1.34.15,3.31.49,3.56-1.51.21-1.7-1.47-2.42-2.83-2.94-3.14-1.2-6.37-2.08-10.51-1.87ZM565.95,495.01c2.51-.36,4.22-1.71,3.97-4.51-.25-2.73-2.13-4.03-4.75-3.91-2.67.12-4.37,1.52-4.1,4.41.26,2.79,2.18,3.84,4.88,4.02ZM719.03,512.39c6.44,4.56,11.14,3.88,15.31-1.9-5.41-1.28-10.13,1.87-15.31,1.9Z"/>
    <path class="cls-6" d="M766.12,472.08c7.45,1.46,7.85,2.06,3.23,7.85-11.46,14.36-26.86,21.34-44.79,23.94-24.09,3.49-44.85-6.01-65.29-16.32-20.19-10.19-40.1-20.92-61.73-27.92-25.04-8.1-49.82-8.34-74.08,2.71-5.89,2.68-11.04,6.66-14.22,12.74-.73,1.4-1.97,3.82-4.21,2.81-1.73-.78-.77-3.02-1-4.62-.61-4.18,2.11-7.03,4.74-10.78-16.03-2.17-30.13-9.54-45.59-12.07-.75-.12-1.58.3-2.38.46-1.18-.29-2.37-.57-3.55-.86-.54-1.44-1.46-1.43-2.58-.68-28.92-6.74-57.7-4.63-86.43,1.01,3.55.46,7.11.65,10.64.43,20.57-1.32,41.14-2.02,61.56,1.51,23.31,4.03,44.27,12.77,60.22,31.13-.58,4.59-3.11,2.11-4.83,1.16-8.92-4.93-17.55-10.41-26.67-14.93-24.05-11.91-49.94-14.27-76.25-13.31-2.68.1-7.38-.35-8.72,4.19-1.56.1-3.11.2-4.67.3-.52-.83-1.01-.75-1.47.05-1.95.19-3.91.39-5.86.58-2.35-.63-4.7-1.28-6.75.75-12.24,1.73-23.67,5.44-34.17,13.56,3.79.73,6.19-.85,8.72-1.62,24.01-7.36,48.31-9.76,73.28-5.76,21.03,3.37,39.2,13.16,57.06,23.85,20.3,12.15,41.33,22.39,65.28,24.86,14.46,1.49,28.58.3,41.33-7.53,3.75-2.3,6.95-5.53,11.63-5.97-.52,9.76-8.33,13.28-15.42,16.18-21.08,8.63-42.53,6.97-63.83.27-19.1-6.01-36.13-16.28-53.55-25.81-10.91-5.97-22.05-11.88-34.85-13.04-14.27-4.66-28.92-5.9-43.82-4.95-13.14.2-25.98,2.35-38.74,5.4-6.1,1.46-12.2,4.33-18.76,1.93-.34-1.66-.67-3.31-1.01-4.97-1.96-9.39-8.09-16.13-14.43-22.73-2.1-2.24-4.2-4.48-6.95-7.4,15.5-1.3,30.23-2.45,44.95-3.77,45.74-4.13,91.47-8.36,137.21-12.48,34.65-3.12,69.33-6,103.97-9.25,25.36-2.38,50.66-5.31,76.01-7.76,22.34-2.16,44.7-3.99,67.06-5.96,6.05-.53,12.25-.42,18.13-1.73,13.38-2.99,23.44,2.54,32.03,11.7,10.8,11.51,18.25,25.01,21.99,40.44-14.25-6.02-27.38-14.45-42.19-19.34-19.69-6.5-39.69-9.83-60.42-7.21-3.05.38-6.34-.8-9.13,1.35-16.99.24-33.97.69-50.88-1.67-15.78-2.2-31.62-3.71-47.59-2.81-3.08.18-6.14.74-9.21,1.13,9.21,2.24,18.33,3.06,27.42,4.06,21.84,2.41,43.5,6.8,65.66,5.53,9.38-.54,18.69-1.53,28.2,0,21.09,3.39,36.72,13.42,44.7,33.84-.02,2.65-.04,5.3-.06,7.95-1.21.6-2.43,1.2-3.64,1.8-1.32-2.36-2.89-4.62-3.93-7.1-4.92-11.69-13.58-19.22-25.26-23.79-8.16-3.18-16.54-4.66-25.2-4.02-28.02,2.08-55.44-2.27-82.9-6.98-8.47-1.45-17.06-3.92-25.87-2.04-9.39-1.73-18.86-1.33-28.23-.39-13.29,1.34-26.85,2.28-37.95,11.24-1.69,1.36-3.34.34-4.67-.45-14.94-8.81-31.3-9.01-48.01-8.18,3.48,3.04,3.48,2.95,5.8,3.13,13.44,1,26.32,3.98,38.3,10.46,2.78,1.5,5.68,2.65,9.03-.01,4.11-3.27,9.27-4.76,14.28-6.35,26.24-8.3,52.17-6.05,77.85,2.47,22.01,7.3,41.72,19.56,62.59,29.31,17.43,8.15,35.18,14.43,54.8,13.75,18.48-.64,32.75-9.07,44.03-23.25ZM787.97,446.85c-4.79-21.39-73.2-32.97-88.14-22.26,31.62.04,60.68,5.7,88.14,22.26Z"/>
    <path class="cls-4" d="M757.54,529.57c10-5.61,19.84-11.45,28.29-19.35,3.85-3.6,7.39-7.56,9.47-12.34,2.3-5.28,4.17-3.55,6.49-.32.88,10.17-1.37,19.82-4.91,29.25-11.69,3.64-21.93,10.1-33.65,16.02,3.1,1.54,4.86,1.03,6.7.86,9.06-.81,16.28-6.17,24.27-9.61-2.04,11.97-6.9,16.05-20.57,17.62-28.7,3.28-57.39,6.61-86.08,9.96-36.8,4.29-73.61,8.6-110.41,12.92-34.52,4.06-69.03,8.22-103.55,12.2-23.5,2.71-47.03,5.08-70.52,7.84-29.29,3.44-58.54,7.13-87.82,10.72-.14-.3-.5-.76-.4-.92,8.45-13.36,9.83-28.59,11.76-43.7.06-.5.69-.93,1.06-1.4,18.66,5.2,36.94,12.04,56.47,13.57,12.43.98,24.42-2.23,35.36-7.15,9.75-4.39,19.18-3.92,28.71-2.43,10.78,1.68,21.27.5,31.8-.88,19.25-2.52,38.13-7.16,57.26-10.25,11.04-1.78,22.55.13,33.63-2.94,11.09-3.07,22.31-5.62,30.61-14.63,3.71-4.02,9.49-4.94,13.73-8.28,33.83,27.28,71.51,32.11,112.23,19.26.84-.35,1.67-.7,2.51-1.05,1.13-.2,2.26-.4,3.39-.6,8.89-3.39,17.61-7.05,24.17-14.36ZM415.91,580.67c-3.14,0-5.02-.04-6.89.01-1.25.04-2.51.18-3.76.34-25.04,3.15-50.02,5.01-74.55-3.32-1.54-.52-3.37-1.51-4.18.89-.68,2.01.74,3.01,2.33,3.86,6.32,3.4,13.01,5.78,20.07,6.97,18.48,3.11,36.67.78,54.77-3.16,4.04-.88,8.15-1.41,12.21-5.6ZM620.61,544.83c-18.16,5.78-35.57,13.17-52.23,22.3,20.1-1.13,37.61-8.39,52.23-22.3Z"/>
    <path class="cls-1" d="M246.2,534.98c.58,1.23.61,2.47.07,3.71-.06,1.05-.13,2.1-.19,3.16-.04.43-.08.86-.12,1.29-13.44-.05-26.87-.22-40.3-.09-9.23.09-18.32,1.58-27.23,3.97-20.4,5.47-40.23,13.08-61.14,16.61-22.21,3.74-44.42,6.52-64.36-8.12-.05-.17-.07-.37-.17-.51-.06-.09-.25-.08-.38-.12.19.21.37.41.56.62.2,1.02.92,2.42.5,2.97-1.02,1.36-2.15-.08-3.21-.49-12.72-4.92-12.28-18.84-19.04-27.84,1.07-2.35,1.7-4.97,3.99-6.58,3.18-.53,8.52,5.22,9.28,10.39,8.29-15.08,20.99-22.22,37.66-22.22-.12,4.76-1.17,9.6,1.04,15.89,2.08-6.36,1.15-11.25,1.17-16.06,12.15-.78,24.25-.83,36.4.52,19.35,2.14,37.79,9.14,57.39,10.09,16.09.78,32,1.06,46.39-7.47,5.69-3.37,8.6-1.51,11.67,3.36,3.5,5.56,5.14,12.22,10.02,16.95ZM50.4,551.71c.05.17.07.36.17.49.06.08.24.08.36.12-.17-.2-.35-.41-.52-.61-.07-.16-.1-.35-.21-.48-.06-.08-.23-.06-.36-.09.19.19.37.38.56.57ZM156.07,535.42c-2.5-6.18-7.7-5.88-12.94-5.3-4.04.45-4.72,3.35-4.59,6.73-3.13.68-2.34,2.33-.92,3.98,3.64,4.23,15.62,3.9,18.96-.55,1.27-1.69,1.46-3.43-.51-4.87ZM75.91,536.48c-2.42,2.22-1.37,3.88.71,5.63,4.61,3.87,12.42,3.92,17.5-.02,3.62-2.81,3.15-4.65-1.28-5.59,1.49-5.24-2.98-5.41-5.74-5.82-4.77-.71-9.57-.16-11.19,5.81Z"/>
    <path class="cls-1" d="M993.28,450.63c.07.91.13,1.81.2,2.72-.75.68-1.92,1.23-2.2,2.07-3.01,9.07-9.59,14.76-18.1,17.99-20.03,7.6-41.1,7.87-61.89,5.83-21.9-2.15-43.72-3.92-65.72-3-1.38-4.78-1.26-9.68-1.11-14.58,3.09-2.83,3.57,2.65,6.13,1.85v-6.11l.42-.43c3.74.34,7.29,1.57,11.15,1.64,12.84.22,24.12-4.9,35.45-9.8,15.18-6.57,30.01-14.05,46.68-16.36,15.93-2.21,30.39.6,42.78,11.62,2.3,2.04,2.39,6.07,6.2,6.56ZM966.49,446.97c-4.78-6.4-12.2-5.19-15.67,2.55-2.89,2.85-.66,4.96,1.62,5.61,4.85,1.39,9.85,1.66,13.59-2.93.99-1.21,2.79-2.27.71-4.02,0-.42-.09-.82-.25-1.21ZM903.9,457.37c-5.3,1.29-1.87,3.56-.35,5.02,3.4,3.26,7.48,1.47,11.35,1.02,4.84-.56,6.23-2.92,3.82-7.27,1.52-2.62.82-4.33-2.16-4.93-5.77-1.17-10.29.33-12.67,6.17ZM868.1,470.04c-.5-2.58-2.4-3.59-4.87-3.78-1.9-.14-4.24-.19-3.98,2.5.26,2.69,2.6,3.51,5.07,3.62,1.68.07,3.44.13,3.79-2.34Z"/>
    <path class="cls-4" d="M31.18,530.12c6.75,9,6.32,22.93,19.04,27.84,1.06.41,2.19,1.86,3.21.49.41-.56-.3-1.96-.5-2.97h0c19.94,14.64,42.15,11.87,64.36,8.13,20.91-3.52,40.74-11.14,61.14-16.61,8.91-2.39,18-3.88,27.23-3.97,13.43-.13,26.87.05,40.3.09-.05,1.26.07,2.55-.18,3.77-2.94,14.21-4.28,14.61-15.51,12.39-7.79-1.54-15.64-3.02-23.54-3.77-18.28-1.73-35.07,4.41-52.06,10.08-23.83,7.95-47.75,15.9-73.29,16.29-10.17.16-20.09-1.57-29.58-5.13-19.54-7.34-28.5-27.86-20.62-46.64Z"/>
    <path class="cls-6" d="M82.11,511.72c-16.68,0-29.38,7.14-37.66,22.22-.77-5.17-6.11-10.92-9.28-10.39,7.62-12.57,19.88-17.52,33.47-19.67,23.08-3.65,45.98-1.51,68.73,3.09,11.69,2.36,23.42,4.53,35.03,7.21,19.39,4.48,37.48,1.31,54.3-8.94,4.41-2.69,6.95-1.93,9.89,1.92,6.3,8.27,9.34,17.54,9.62,27.83-4.89-4.73-6.52-11.38-10.02-16.95-3.07-4.87-5.98-6.73-11.67-3.36-14.39,8.53-30.29,8.25-46.39,7.47-19.6-.95-38.04-7.95-57.39-10.09-12.15-1.35-24.26-1.3-36.4-.52-.74.06-1.48.12-2.22.18Z"/>
    <path class="cls-4" d="M845.57,476.25c22-.92,43.81.85,65.72,3,20.78,2.04,41.86,1.76,61.89-5.83,8.51-3.23,15.09-8.91,18.1-17.99.28-.84,1.45-1.39,2.2-2.07,2.08,12.82-3.71,22.27-13.32,29.67-9.83,7.57-21.57,9.75-33.65,10.76-21.68,1.8-42.59-2.48-63.31-7.96-12.24-3.24-23.99-3.86-35.02,3.64-.82.56-1.88.77-3.36,1.35-.44-5.22-.33-9.9.75-14.56Z"/>
    <path class="cls-4" d="M284.37,583.01c-2.12,7.96-7.07,14.24-12.76,19.77-6.67,6.48-14.64,5.73-22.1,1.58-11.69-6.51-18.88-16.85-23.1-29.39-.33-.97-1.02-2.2.12-2.78.74-.38,2.08-.17,2.9.27,3.51,1.87,6.86,4.02,10.37,5.89,15.01,8.03,28.14,2.7,33.81-13.4,2.41-6.84,3.15-13.98,3.16-20.97.01-6.52,2.52-8.02,8.1-7.2.08,14.21-.24,28.36-4.94,42.01-1.54,4.49,1.03,4.83,4.43,4.21Z"/>
    <path class="cls-6" d="M313.93,484.75c-1.11,3.15-2.88,3.31-5.04,1.02-1.14-1.21-2.01-2.77-4.42-1.88,6.09,13.58,7.63,28.05,8.23,42.69-.04.8-.08,1.6-.12,2.4-.15,5.01-.11,10.03-.52,15.02-.21,2.57-.32,6.27-3.81,6.25-3.55-.02-4.18,2.85-6.18,4.33,1.67-24.33-.83-48.07-9.86-70.93-4.96-12.57-12.63-23.06-23.46-31.31,9.88-4.59,15.48-3.31,27.5,6.12,5.09,6.25,11.11,11.81,14.54,19.32.06,2.77,2.45,4.49,3.14,6.98Z"/>
    <path class="cls-6" d="M850.59,457.4v6.11c-2.56.81-3.04-4.68-6.13-1.85-2.94-4.68-3.04-10.13-4.51-15.18.73-.29,1.23-.67,1.45-.54,19.87,10.87,37.68,3.36,55.05-6.42,20.47-11.52,41.93-18.57,65.8-16.59,13.98,1.16,26.91,10.16,30.44,21.54.64,2.07.85,4.06.58,6.16-3.81-.49-3.91-4.52-6.2-6.56-12.39-11.03-26.85-13.83-42.78-11.62-16.67,2.31-31.5,9.79-46.68,16.36-11.33,4.9-22.62,10.02-35.45,9.8-3.85-.07-7.41-1.3-11.15-1.64-.28-.15-.57-.31-.85-.46.14.29.29.59.43.88Z"/>
    <path class="cls-4" d="M284.95,531.34c-8.36,1.79-8.01,1.76-8.96-7.11-1.26-11.89-5.15-22.91-13.5-31.8-5.66-6.03-12.52-8.73-21.02-6.53-4.74,1.22-9.03,3.28-13.37,5.37-1.61.78-3.31,2.81-5.05,1.51-2.16-1.6-.39-4.03.17-5.82,2.33-7.44,5.41-14.53,11.32-19.97,11.94-4.59,22.44-2.92,31.06,7.11,3.84,4.47,6.88,9.42,9.18,14.85,5.75,13.57,9.16,27.69,10.17,42.4Z"/>
    <path class="cls-6" d="M809.58,475.81c-2.67-26.69-7.84-37.66-33.77-71.12,14.39-1.11,26.97.98,37.11,11.66,12.55,13.22,18.46,29.08,19.19,47.08-4.85-1.09-4.93-5.73-6.37-9.09-4.45-10.37-8.25-21.08-15.42-30.01-3.57-4.45-6.95-9.31-13.08-11.24-.58,2.54.6,3.85,2.11,5.01.37.43.74.87,1.12,1.3,0,0-.13-.07-.13-.07,8.22,16.54,15.11,33.55,18.23,51.89-1.52,2.08.82,3.8.53,5.77-3.26.29-6.43-.09-9.51-1.19Z"/>
    <path class="cls-4" d="M834.23,477.16c.37,22.31-5.06,42.97-17.98,61.34-3.86,5.49-9.87,8.17-16.59,10.77.42-6.74,4.45-11.63,5.84-17.39,2.82-11.67,4.18-23.45,3.83-35.46-.07-2.25-.57-4.62.65-6.78.38.91.76,1.83,1.24,2.97,1.25-2.71-.7-6.67,3.67-7.61,3.03-.65,2.81,2.38,4.25,3.53.92,2.31-.7,5.26,1.89,7.78,3.4-5.09,1.06-10.49,2.24-15.33,3.61-1.41,6.66-4.38,10.95-3.83Z"/>
    <path class="cls-6" d="M284.95,531.34c-1.01-14.7-4.42-28.83-10.17-42.4-2.3-5.43-5.34-10.38-9.18-14.85-8.62-10.03-19.11-11.7-31.06-7.11,11.28-12.73,21.31-13.29,33.85-2.1,12.56,11.21,17.7,26.16,21.29,41.86,1.21,5.3,1.65,10.77,2.7,16.11,1.22,6.21-1.08,9.05-7.43,8.49Z"/>
    <path class="cls-1" d="M302.07,554.58c1.99-1.48,2.63-4.34,6.18-4.33,3.49.02,3.6-3.68,3.81-6.25.41-4.99.37-10.01.52-15.02,1.94,4.74,1.99,10.12,4.92,14.59,1.76-1.5,3.42-2.91,5.07-4.32l-.69,12.68c-.18,1.61-.36,3.21-.55,4.82-.25.37-.29.77-.13,1.19-1.69,6.26-2.36,12.79-5.07,18.78-6.9,3.04-13.01,7.93-20.79,8.94,2.24-10.36,4.49-20.72,6.73-31.08Z"/>
    <path class="cls-4" d="M295.34,585.65c7.77-1.02,13.88-5.9,20.79-8.94-2.05,9.01-5.88,17.31-10.5,25.2-2.85,4.86-15.72,9.13-21.18,7.77-1.61-.4-2.42-1.22-1.31-2.48,5.58-6.35,7.65-14.65,12.21-21.55Z"/>
    <path class="cls-1" d="M834.23,477.16c-4.29-.55-7.35,2.43-10.95,3.83-.31-3.47-.62-6.93-.93-10.4-.26-13.49-4.96-25.79-10.88-37.56-2.62-5.2-5.1-11.03-11.13-13.69,0,0,.13.07.13.07-.37-.43-.74-.87-1.12-1.31-1.51-1.17-2.7-2.48-2.11-5.01,6.13,1.92,9.51,6.79,13.08,11.24,7.17,8.93,10.97,19.63,15.42,30.01,1.44,3.36,1.53,7.99,6.37,9.09,0,0-.16-.06-.16-.06.4.44.81.88,1.21,1.32.16,4.18,2.23,8.19,1.07,12.47Z"/>
    <path class="cls-6" d="M252.38,514.84c-2.33-5.72-5.8-10.58-10.7-14.39-.92-.71-2.25-1.5-1.69-2.99.53-1.4,2.01-1.26,3.22-1.45,5.85-.91,10.14,1.87,13.6,6.09,7,8.54,10.47,18.38,10.23,29.47-2.51,3.18-3.93,2.07-4.6-1.25-.73-3.62-1.39-7.25-1.95-10.9-.77-5.05-2.88-7.52-8.11-4.58Z"/>
    <path class="cls-4" d="M266.92,538.89c1.18,7.65.19,15.06-2.73,22.19-1.97,4.8-5.4,7.88-10.81,8.42-3.97.4-5.68-.4-3.4-4.69,3.48-6.53,5.47-13.57,6.19-20.95,3.5-1.83,8.06-1.38,10.75-4.97Z"/>
    <path class="cls-1" d="M284.37,583.01c-3.4.61-5.97.28-4.43-4.21,4.69-13.65,5.02-27.81,4.94-42.01.42-.01.84-.03,1.26-.04.77,4.39-2.96,11.27,6.13,11.05.08,12.35-3.23,23.94-7.89,35.22Z"/>
    <path class="cls-1" d="M266.92,538.89c-2.69,3.59-7.25,3.14-10.75,4.97-.19-9.81-1.5-19.48-3.78-29.02,5.23-2.95,7.34-.48,8.11,4.57.56,3.65,1.22,7.29,1.95,10.9.67,3.32,2.09,4.42,4.6,1.25-.04,2.44-.08,4.88-.13,7.33Z"/>
    <path class="cls-5" d="M310.79,477.77c-3.43-7.51-9.45-13.06-14.54-19.32,2.85-.23,4.8-3.22,7.93-2.58,6.34,6.61,12.47,13.35,14.43,22.73-2.67.33-5.1-1.69-7.83-.84Z"/>
    <path class="cls-5" d="M794.21,534.08c-7.99,3.44-15.21,8.79-24.27,9.61-1.84.17-3.61.68-6.7-.86,11.72-5.92,21.96-12.38,33.65-16.02-.5,1.99.56,4.34-1.4,5.98-.45.44-.9.88-1.35,1.32,0,0,.08-.03.08-.03Z"/>
    <path class="cls-5" d="M321.88,551.93c.23-4.23.46-8.45.69-12.68.91-5.47,1.82-10.94,2.73-16.41,3.91.12,3.17,3.59,3.31,5.54.58,7.79,1.75,15.61.19,23.43-2.31.04-4.62.08-6.93.12Z"/>
    <path class="cls-1" d="M819.15,488.55c-1.44-1.14-1.21-4.18-4.25-3.53-4.37.93-2.42,4.89-3.67,7.61-.48-1.15-.86-2.06-1.24-2.97-.06-1.08-.11-2.16-.16-3.23.75-1.83,1.07-3.62-.32-5.32.02-1.76.05-3.52.07-5.28,3.08,1.1,6.26,1.48,9.51,1.19.02,3.85.04,7.7.06,11.54Z"/>
    <path class="cls-6" d="M292.26,547.79c-9.09.22-5.36-6.66-6.13-11.05,1.82-.4,3.63-.8,6.13-1.35v12.4Z"/>
    <path class="cls-6" d="M246.08,541.85c.06-1.05.13-2.11.19-3.16-.06,1.06-.13,2.11-.19,3.16Z"/>
    <path class="cls-4" d="M809.52,481.1c1.39,1.7,1.07,3.5.32,5.32-.96-1.72-.72-3.52-.32-5.32Z"/>
    <path class="cls-6" d="M833.16,464.69c-.4-.44-.8-.88-1.21-1.32.73.14,1.24.48,1.21,1.32Z"/>
    <path class="cls-4" d="M794.12,534.11c.45-.44.9-.88,1.35-1.32-.45.44-.9.88-1.35,1.32Z"/>
    <path class="cls-5" d="M321.2,557.93c-.16-.42-.11-.81.13-1.19.13.3.28.6.37.92.01.04-.33.18-.5.27Z"/>
    <path class="cls-5" d="M372.19,461.45c1.95-.19,3.91-.39,5.86-.58.49-.02.98-.04,1.47-.05,1.56-.1,3.11-.2,4.67-.3,9.76,1.02,19.57,1.28,29.34,2.49,19.33,2.4,36.63,9.77,53.22,19.42,19.02,11.06,37.9,22.53,59.82,27.12,17.02,3.56,33.76,4.03,49.01-6.39,3.4-2.32,8.8-1.41,10.19-7.13,1.23-5.05,1.69-9.89-.19-14.77-3.11-8.07-14.12-12.67-23.98-10.11-8.73,2.26-14.46,12.14-13.05,22.46.27,1.97,1.8,3.89.37,5.98-5.92-3.1-7.97-11.89-4.75-20.29,5.19-13.55,21.31-19.49,35.15-12.96,13.56,6.4,17.94,21.09,10.29,34.34-.51.88-.69,1.94-1.02,2.92-4.68.44-7.88,3.67-11.63,5.97-12.76,7.83-26.87,9.02-41.33,7.53-23.95-2.47-44.98-12.7-65.28-24.86-17.86-10.69-36.03-20.49-57.06-23.85-24.97-4-49.27-1.6-73.28,5.76-2.53.78-4.93,2.35-8.72,1.62,10.5-8.12,21.93-11.82,34.17-13.56,2.3.23,4.6.4,6.74-.75Z"/>
    <path class="cls-5" d="M766.12,472.08c-11.28,14.18-25.55,22.62-44.03,23.25-19.61.68-37.37-5.6-54.8-13.75-20.87-9.76-40.58-22.02-62.59-29.31-25.69-8.52-51.61-10.77-77.85-2.47-5.01,1.58-10.17,3.08-14.28,6.35-3.34,2.66-6.24,1.52-9.03.01-11.98-6.47-24.86-9.46-38.3-10.46-2.32-.17-2.33-.09-5.8-3.13,16.72-.84,33.07-.63,48.01,8.18,1.34.79,2.98,1.81,4.67.45,11.1-8.95,24.66-9.9,37.95-11.24,9.36-.94,18.84-1.34,28.23.39,24.37,5.11,47.36,13.85,69.69,24.87,14.45,7.14,28.97,14.44,44.38,19.39,16.29,5.23,32.78,7.29,49.09-.33,1.21-.6,2.43-1.2,3.64-1.8,6.64-2.37,11.61-7,16.38-11.94,1.31-1.36,2.88-2.77,4.89-1.65,1.71.95-.25,2.1-.25,3.18Z"/>
    <path class="cls-5" d="M606.4,491.08c-.89-5.83,2.61-5.8,6.49-4.6,11.47,3.53,22.18,8.88,32.61,14.69,14.71,8.2,29.69,15.54,46.49,18.41,32.27,5.51,61.26-.33,85.13-24.3,4.56-4.57,7.18-10.74,12.76-15.43.94,4.57-.84,7.81-2.58,10.92-12.48,22.36-32.95,32.61-57.04,36.94-29.95,5.39-57.32-1.91-82.88-17.57-3.56-2.18-7.32-4.04-10.99-6.05-4.71-2.8-9.28-5.79-14.24-8.21-5.06-2.47-10.65-2.76-15.76-4.82Z"/>
    <path class="cls-5" d="M745.15,474.54c-7.98-20.42-23.61-30.45-44.7-33.84-9.51-1.53-18.82-.54-28.2,0-22.17,1.27-43.82-3.12-65.66-5.53-9.09-1-18.2-1.82-27.42-4.06,3.07-.39,6.13-.96,9.21-1.13,15.97-.91,31.81.6,47.59,2.81,16.92,2.36,33.9,1.91,50.88,1.67,11.58.88,23.09,1.93,34.11,6.17,12.4,4.77,21,13.34,26.27,25.31,1.35,3.06.42,6.17-2.07,8.61Z"/>
    <path class="cls-4" d="M650.4,522.11c22.63,14.31,47.38,18.13,73.56,14.94,3.7-.45,7.4-.85,11.1-1.27-.91,1.07-1.82,2.14-2.74,3.22-7.4,2.12-14.67,5.14-22.22,6.21-22.81,3.23-44.75-.99-66-9.41-1.11-2.8-2.18-5.25-1.52-8.76.68-3.64-4.14-5.29-6.27-8.04-1.36-1.75-3.68-2.74-5.15-4.44-1.06-1.22.37-1.59,1.41-1.75,5.94,3.1,11.89,6.2,17.83,9.3Z"/>
    <path class="cls-5" d="M385.09,564.36c-15.63-.37-28.69-3.66-40.75-10.6-1.58-.91-2.99-2.22-4.22-3.58-.94-1.05-1.86-2.54-.57-3.93,1.12-1.2,2.32-.07,3.41.37,3.69,1.5,7.32,3.13,11.04,4.56,29.26,11.29,56.76,5.38,83.35-8.75,4.25-2.26,8.22-5.03,12.38-7.47,1.44-.85,3.41-1.89,4.6-.36,1.41,1.82-.78,2.95-1.91,3.97-15.58,14.06-34.05,21.82-54.69,24.44-4.75.6-9.5,1.94-12.63,1.35Z"/>
    <path class="cls-2" d="M644.11,535.8c21.25,8.41,43.19,12.63,66,9.41,7.55-1.07,14.82-4.08,22.22-6.21.35,1.65.7,3.29,1.04,4.94-1.13.2-2.26.4-3.39.59-1.14-.36-2.08-.26-2.51,1.05-40.72,12.85-78.4,8.02-112.23-19.26-.83-1.31-2.63-2.51-.85-4.25,1.7-1.65,3.09-.02,4.4.76,8.16,4.87,16.27,9.82,25.31,12.96Z"/>
    <path class="cls-5" d="M457.25,450.01c1.18.29,2.37.57,3.55.86,8.45,4.86,18.15,6.91,26.53,12.01,5.77,3.51,11.19,7.14,14.31,13.41,1.33,2.67,1.92,5.1-.98,7.12-15.95-18.35-36.91-27.1-60.22-31.13-20.42-3.53-40.99-2.83-61.56-1.51-3.53.23-7.09.03-10.64-.43,28.73-5.64,57.52-7.75,86.43-1.01.86.23,1.72.46,2.58.69Z"/>
    <path class="cls-6" d="M389.32,512.12c.35,2.68,5.95,1.63,4.26,4.97-1.67,3.31-5.42,3.4-8.93,2.42-17.33-4.86-34.7-4.78-52.02-.09-7.12,1.93-5.28-3.72-6.36-6.98.63-1.15,1.55-1.93,2.85-2.24,16.88-4.05,33.75-5.75,50.59.19,3.1,1.09,6.07,2.97,9.6,1.73Z"/>
    <path class="cls-6" d="M462.6,519.68c-1.2,2.83-3.46,1.74-5.36,1.3-4.14-.96-7.66-3.23-11.17-5.55-12.89-8.51-25.41-17.67-39.84-23.54-5.79-2.36-11.77-4.25-17.6-6.5-1.44-.56-3.75-.86-3.49-2.92.12-.92,2.09-1.6,3.21-2.38.71,0,1.42.01,2.12.02.86.94,1.83,1.04,2.91.42,2.44.24,4.88.48,7.32.73,7.47,3.64,15.11,6.9,22.37,11.04,13.99,7.98,26.07,18.66,39.52,27.39Z"/>
    <path class="cls-5" d="M389.32,512.12c-3.53,1.23-6.49-.64-9.6-1.73-16.85-5.93-33.71-4.24-50.59-.19-1.3.31-2.22,1.09-2.85,2.24-2.92.07-3.23-1.96-3.49-4.18-.24-2.07.82-3.46,2.48-3.86,21.1-5.03,42.11-8.08,62.29,3.52,1.73.99,3.45,1.84,1.76,4.2Z"/>
    <path class="cls-5" d="M551.89,541.88c-3.14-.17-6.31-.17-9.42-.59-1.52-.2-3.83-.54-3.54-2.74.2-1.51,2.14-1.76,3.63-1.89,3.55-.33,7.1-.94,10.65-.94,15.23.02,28.7-5.39,41.52-13,1.8-1.07,3.63-2.11,5.47-3.1,1.51-.81,3.42-1.72,4.53-.03,1.05,1.61-.38,3.2-1.64,4.34-6.82,6.12-14.79,10.35-23.36,13.3-8.97,3.08-18.28,4.65-27.83,4.65Z"/>
    <path class="cls-5" d="M462.6,519.68c-13.44-8.73-25.52-19.41-39.52-27.39-7.26-4.14-14.89-7.4-22.37-11.04.97-1.56,2.3-1.04,3.78-.91,6.8.59,12.59,4.47,19.19,5.64,13.67,8.61,27.36,17.18,39.73,27.67,3.35,2.84.38,4.16-.82,6.03Z"/>
    <path class="cls-6" d="M791.5,463.09c1.94,2.39,7.7,2.52,6.01,6.59-1.45,3.48-6.02,1.52-9.08.89-11.21-2.35-23.02-3.08-32.73-10.03-3.2-2.29-8.1-4.82-4.12-10.36,0,0,.34.33.34.33-.14.85.17,1.12.97.75,11.98,5.4,24.16,10.17,37.48,11.03,0,0-.11-.12-.11-.12-.09.98.56.97,1.23.93Z"/>
    <path class="cls-6" d="M650.4,522.11c-5.94-3.1-11.89-6.2-17.83-9.3-5.94-5.35-13.48-7.97-20.39-11.56-4.6-2.39-6.62-5.2-5.78-10.17,5.11,2.06,10.7,2.35,15.76,4.82,4.96,2.42,9.53,5.41,14.24,8.21-3.6,2.61-2.38,4.73.68,6.65,3.46,2.17,6.88,4.41,10.4,6.47,1.94,1.14,3.31,2.44,2.92,4.88Z"/>
    <path class="cls-5" d="M408.41,525.32c-5.06-.07-7.73,4.43-11.83,6.25-3.11,1.38-5.93,3.42-9.53,5.56-.13-4.65,2.04-6.89,4.19-9.1,8.58-8.83,19.31-13.01,31.34-13.89,2.89-.21,7.35-1.18,7.01,4.46-7.06,2.24-14.11,4.48-21.17,6.72Z"/>
    <path class="cls-2" d="M509.67,544.71c-12.6,7.56-26.49,9.55-40.85,9.39-1.59-.02-3.75-.27-3.7-2.47.07-2.94,2.56-3.68,4.9-3.76,13.46-.44,26.38-3.58,39.16-7.49.16,1.44.32,2.88.48,4.32Z"/>
    <path class="cls-5" d="M790.38,462.28c-13.32-.86-25.5-5.63-37.48-11.03-.32-.25-.65-.5-.97-.75,0,0-.34-.33-.34-.33-1.02-1.1-2.03-2.3-1.08-3.84.71-1.15,1.92-1.62,3.27-.99,10.43,4.82,22.07,6.63,31.94,12.85,1.79,1.13,3.51,2.28,4.67,4.1Z"/>
    <path class="cls-6" d="M408.41,525.32c7.06-2.24,14.11-4.48,21.17-6.72,2.52,4.37-1.69,6.81-3.1,9.93-1.54,3.41-4.16,6.26-7.06,8.73-1.11.95-2.22,2.16-3.84,1.64-1.93-.61-2.42-2.46-2.19-4.08.68-4.88-1.33-6.42-6.24-4.69.53-2.03.9-3.42,1.26-4.8Z"/>
    <path class="cls-4" d="M325.3,522.84c-.91,5.47-1.82,10.94-2.73,16.41-1.65,1.41-3.31,2.82-5.07,4.32-2.93-4.46-2.98-9.85-4.92-14.59.04-.8.08-1.6.12-2.4,4.32-.82,7.96-3.97,12.6-3.74Z"/>
    <path class="cls-4" d="M423.69,485.99c-6.6-1.17-12.4-5.05-19.19-5.64-1.48-.13-2.81-.65-3.78.91-2.44-.24-4.88-.48-7.32-.72-.88-.74-1.87-.79-2.91-.42-.71,0-1.42-.01-2.12-.02-3.16-3.01-7.69-2-11.24-3.85,14.9-.95,29.55.29,43.82,4.95-.31,2.31,2.68,2.71,2.75,4.8Z"/>
    <path class="cls-5" d="M733.37,543.94c-.35-1.65-.69-3.29-1.04-4.94.91-1.07,1.82-2.15,2.74-3.22,7.89-.63,15.01-4.04,22.48-6.21-6.55,7.31-15.28,10.98-24.17,14.36Z"/>
    <path class="cls-2" d="M349.08,530.31c3.28.03,5.71,1.38,6,4.85.25,2.96-1.58,4.76-4.52,4.65-3.32-.13-6.26-1.49-6.51-5.28-.21-3.21,2.34-3.96,5.02-4.23Z"/>
    <path class="cls-5" d="M381.07,487.32c4.14-.21,7.37.66,10.51,1.87,1.36.52,3.04,1.25,2.83,2.94-.25,2-2.22,1.66-3.56,1.51-3.31-.37-6.64-.81-9.88-1.57-1.88-.44-5.01-.67-4.61-3.21.43-2.71,3.59-1,4.71-1.55Z"/>
    <path class="cls-2" d="M565.95,495.01c-2.71-.18-4.62-1.23-4.88-4.02-.27-2.88,1.43-4.29,4.1-4.41,2.63-.11,4.51,1.18,4.75,3.91.25,2.8-1.46,4.15-3.97,4.51Z"/>
    <path class="cls-5" d="M719.03,512.39c5.18-.02,9.9-3.18,15.31-1.9-4.17,5.78-8.86,6.46-15.31,1.9Z"/>
    <path class="cls-5" d="M509.67,544.71c-.16-1.44-.32-2.88-.48-4.32,2.82-2.16,6.07-3.09,10.27-3.86-2.11,5-5.86,6.7-9.79,8.19Z"/>
    <path class="cls-4" d="M310.79,477.77c2.73-.86,5.15,1.16,7.83.84.34,1.66.67,3.31,1.01,4.97-1.9.39-3.79.78-5.69,1.18-.69-2.49-3.08-4.21-3.14-6.98Z"/>
    <path class="cls-5" d="M791.5,463.09c-.67.03-1.33.05-1.23-.93.41.31.82.62,1.23.93Z"/>
    <path class="cls-1" d="M741.46,484.29c-16.31,7.62-32.8,5.56-49.09.33-15.41-4.95-29.93-12.25-44.38-19.39-22.33-11.03-45.32-19.76-69.69-24.87,8.81-1.89,17.4.58,25.87,2.04,27.46,4.71,54.87,9.06,82.9,6.98,8.65-.64,17.04.84,25.2,4.02,11.69,4.56,20.35,12.09,25.26,23.79,1.04,2.48,2.61,4.74,3.93,7.1ZM694.41,466.3c-.86-2.45-2.84-3.92-5.86-3.94-2.64-.02-5.38.41-5.4,3.71-.02,3.63,2.72,4.84,5.91,4.98,2.88.13,4.71-1.26,5.35-4.74Z"/>
    <path class="cls-4" d="M787.97,446.85c-27.47-16.56-56.52-22.22-88.14-22.26,14.94-10.71,83.36.87,88.14,22.26Z"/>
    <path class="cls-1" d="M372.19,461.45c-2.15,1.15-4.44.98-6.74.75,2.05-2.03,4.4-1.39,6.74-.75Z"/>
    <path class="cls-1" d="M457.25,450.01c-.86-.23-1.72-.46-2.58-.69,1.12-.74,2.04-.76,2.58.69Z"/>
    <path class="cls-1" d="M379.52,460.82c-.49.02-.98.04-1.47.05.46-.8.95-.88,1.47-.05Z"/>
    <path class="cls-2" d="M415.91,580.67c-4.06,4.19-8.18,4.72-12.21,5.6-18.1,3.94-36.28,6.27-54.77,3.16-7.06-1.19-13.75-3.57-20.07-6.97-1.59-.85-3.01-1.86-2.33-3.86.81-2.4,2.64-1.41,4.18-.89,24.53,8.32,49.51,6.46,74.55,3.32,1.25-.16,2.5-.3,3.76-.34,1.87-.06,3.75-.01,6.89-.01Z"/>
    <path class="cls-2" d="M620.61,544.83c-14.62,13.91-32.12,21.17-52.23,22.3,16.66-9.13,34.06-16.52,52.23-22.3Z"/>
    <path class="cls-5" d="M727.47,545.59c.43-1.31,1.37-1.41,2.51-1.05-.84.35-1.67.7-2.51,1.05Z"/>
    <path class="cls-6" d="M92.84,536.49c4.43.95,4.9,2.79,1.28,5.59-5.08,3.94-12.9,3.89-17.5.02-2.08-1.75-3.13-3.41-.72-5.63,5.64,3.28,11.29,3.45,16.93.02Z"/>
    <path class="cls-2" d="M138.54,536.85c-.13-3.38.55-6.28,4.59-6.73,5.24-.58,10.44-.89,12.95,5.3-5.71,2.05-11.47,3.68-17.54,1.43Z"/>
    <path class="cls-2" d="M92.84,536.49c-5.65,3.44-11.29,3.27-16.93-.02,1.62-5.97,6.42-6.51,11.19-5.81,2.76.41,7.23.59,5.74,5.82Z"/>
    <path class="cls-6" d="M138.54,536.85c6.07,2.25,11.82.62,17.54-1.43,1.97,1.44,1.77,3.18.5,4.87-3.33,4.44-15.32,4.78-18.96.55-1.42-1.65-2.21-3.31.92-3.98Z"/>
    <path class="cls-4" d="M82.11,511.72c.74-.06,1.48-.12,2.22-.18-.03,4.81.9,9.7-1.17,16.06-2.21-6.29-1.16-11.12-1.04-15.89Z"/>
    <path class="cls-4" d="M50.4,551.71l-.56-.57c.12.03.29.02.36.09.11.13.14.32.21.48,0,0,0,0,0,0Z"/>
    <path class="cls-4" d="M50.4,551.71c.17.2.35.41.52.61-.12-.04-.3-.03-.36-.12-.1-.14-.12-.33-.17-.49,0,0,0,0,0,0Z"/>
    <path class="cls-4" d="M52.92,555.49c-.19-.21-.37-.41-.56-.62.13.04.31.03.38.12.1.14.12.34.17.51,0,0,0,0,0,0Z"/>
    <path class="cls-2" d="M903.9,457.37c2.38-5.84,6.9-7.34,12.67-6.17,2.98.61,3.67,2.31,2.16,4.93-4.8,2.06-9.49,5.59-14.83,1.23Z"/>
    <path class="cls-6" d="M903.9,457.37c5.34,4.36,10.03.82,14.83-1.23,2.4,4.36,1.02,6.71-3.82,7.28-3.87.45-7.96,2.24-11.35-1.02-1.52-1.46-4.95-3.74.35-5.02Z"/>
    <path class="cls-6" d="M966.73,448.17c2.08,1.75.28,2.81-.71,4.02-3.74,4.6-8.74,4.33-13.59,2.93-2.28-.66-4.51-2.76-1.62-5.61,1.92.29,3.84.58,5.77.87,3.71.77,6.84-1.16,10.15-2.22Z"/>
    <path class="cls-2" d="M956.58,450.39c-1.92-.29-3.85-.58-5.77-.87,3.47-7.74,10.89-8.94,15.67-2.55-3.57.36-7.78-1.13-9.91,3.42Z"/>
    <path class="cls-5" d="M868.1,470.04c-.35,2.47-2.1,2.41-3.79,2.34-2.46-.1-4.8-.93-5.07-3.62-.26-2.69,2.08-2.64,3.98-2.5,2.47.19,4.38,1.2,4.87,3.78Z"/>
    <path class="cls-5" d="M956.58,450.39c2.13-4.55,6.34-3.06,9.91-3.42.16.39.24.79.25,1.2-3.32,1.05-6.44,2.99-10.15,2.22Z"/>
    <path class="cls-1" d="M850.59,457.4c-.14-.29-.29-.59-.43-.88.28.15.57.31.85.46,0,0-.42.42-.42.42Z"/>
    <path class="cls-5" d="M800.34,419.34c6.03,2.66,8.51,8.49,11.13,13.69,5.92,11.78,10.63,24.07,10.88,37.56-1.26.21-2.52.42-3.78.64-3.12-18.34-10.01-35.34-18.23-51.89Z"/>
    <path class="cls-2" d="M818.57,471.23c1.26-.21,2.52-.42,3.78-.64.31,3.47.62,6.93.93,10.4-1.18,4.84,1.17,10.24-2.24,15.33-2.58-2.52-.97-5.47-1.89-7.78-.02-3.85-.04-7.69-.06-11.54.29-1.97-2.05-3.69-.53-5.77Z"/>
    <path class="cls-5" d="M799.35,418.11c.37.44.74.87,1.12,1.31-.37-.44-.74-.87-1.12-1.31Z"/>
    <path class="cls-1" d="M390.48,480.11c1.05-.37,2.03-.32,2.91.42-1.08.62-2.06.52-2.91-.42Z"/>
    <path class="cls-1" d="M751.92,450.51c.32.25.65.5.97.75-.8.37-1.11.1-.97-.75Z"/>
    <path class="cls-2" d="M694.41,466.3c-.65,3.49-2.47,4.87-5.35,4.74-3.2-.14-5.94-1.35-5.91-4.98.02-3.29,2.77-3.73,5.4-3.71,3.03.02,5,1.49,5.86,3.94Z"/>
  </g>
  <g>
    <g>
      <path class="cls-3" d="M319.99,317.31c-6.95-1.82-14.81-6.59-23.79-14.27-5.75-5.09-12.29-12.96-19.68-23.59-5.94-8.65-11.06-17.08-15.27-25.34-1.29-2.05-3.28-5.72-5.99-10.99-1.44-2.8-2.88-5.6-4.33-8.4-1.7-3.29-3.41-6.58-5.11-9.87-3.67-7.07-7.79-15.68-12.33-25.83-3.56-8.77-6.35-18.12-8.3-28.08-1.64-9.89-1.19-19.12,1.43-27.66,2.45-8.86,7.92-16.82,16.43-23.66,5.26-3.64,10.51-6.51,15.69-8.59,9.9-3.97,15.93-3.44,17.98,1.32.81,1.87.57,3.7-.69,5.47-1.27,1.78-3.29,3.21-6.08,4.3-.93.37-2.67.75-5.21,1.17-1.7.48-3.4.97-5.1,1.46-4.4,1.79-7.87,4.4-10.4,7.79-2.52,3.39-4.02,7.42-4.5,12.07-1.31,10.27-.39,20.53,2.56,30.78,3.37,12.71,7.14,23.41,11.19,32.15,3.27,7.67,6.94,15.67,10.99,24,1.09,2.25,2.19,4.5,3.28,6.75.93,2.43,2.24,5.39,3.93,8.89,4.1,8.51,8.59,16.65,13.42,24.42,5.35,9.37,11.32,16.84,17.84,22.46,6.54,6.64,13.71,10.18,21.58,10.73,3.8.44,7.93-.25,12.47-2.03,7.98-3.13,13.32-9.24,16.24-18.53-2.43-6.01-5.1-11.79-8.05-17.33-2.95-5.53-5.61-9.05-7.96-10.56-.2.07-.62.28-1.26.61-.65.34-1.62.85-2.9,1.52-2.26,1.04-4.51,2.09-6.76,3.15-6.55,2.52-10.84,1.38-12.94-3.57-.65-1.54-.26-3.29,1.2-5.26,1.45-1.97,3.75-3.87,6.89-5.67,5.03-3.31,9.76-5.75,14.14-7.33,3.98-1.43,7.57-1.21,10.71.65,3.14,1.86,5.42,4.8,6.85,8.81,2.06,5.76,5.84,13.27,11.21,22.61,5.29,9.17,8.84,16.67,10.79,22.46.65,1.93.56,3.81-.24,5.64-.8,1.83-2.11,3.04-3.91,3.66-4.53,1.54-8.24.8-11.2-2.27-.03-.09-.06-.17-.1-.26-1.65,1.67-3.29,3.35-4.92,5.03-4.31,4.93-8.27,8.14-12.01,9.6-9.77,3.82-18.92,4.38-27.79,1.58Z"/>
      <path class="cls-3" d="M439,270.98c-6.25-8.43-11.7-17.3-16.25-26.68-1.49-2.88-2.99-5.75-4.5-8.62-12.65-24.14-20.92-37.55-23.62-40.67-1.27.34-2.54.68-3.81,1.03,1.54,5.15,2.82,9.89,3.88,14.21,1.44,4.89,2.88,9.77,4.31,14.66,6.96,23.83,14.09,41.93,21.27,54.41-.38,2.68-.76,5.37-1.12,8.05-2.6.69-5.2,1.4-7.79,2.13-1.59-1-3.18-1.99-4.78-2.98-1.65-5.98-3.31-11.96-4.97-17.93-4.75-15.97-12.82-39.96-25-71.72-12.67-33.93-21.76-57.61-26.41-71.31-2.88-8.41-.47-13.8,7.31-16.02,12.72-3.61,24-3.81,33.56-.8,9.57,3.02,15.46,9.12,17.84,18.07,1.67,6.27,3.32,12.55,4.96,18.82.7,2.69.94,5.91.74,9.66-.2,3.75-.68,6.85-1.43,9.31-1.24,3.71-2.46,7.43-3.65,11.14-1.01,3.1-2.01,6.21-2.98,9.31,1.13,2.01,2.25,4.02,3.36,6.04,3.21,5.98,6.38,11.98,9.49,18,6.51,13.11,12.01,23.72,16.68,31.77,4.66,8.06,9.62,15.21,14.85,21.49.82.96,1.64,1.93,2.45,2.89,2.71,3.22,4.27,5.92,4.73,8.1.38,1.81.15,3.51-.7,5.1-.84,1.59-2.2,2.58-4.08,2.98-4.13.88-8.83-2.62-14.34-10.46ZM395.71,163.29c.88-9.69.34-18.28-1.8-25.77-1.63-5.7-4.08-10.82-7.4-15.34-2-2.55-4.57-4.24-7.7-5.05-3.14-.81-6.71-.68-10.67.41-.09.51-.19,1.01-.28,1.52.02.86.04,1.72.06,2.58,3.54,10.36,7.03,20.74,10.48,31.13,3.29,9.09,6.55,19.05,9.8,29.88,4.14-3.23,6.62-9.67,7.51-19.36Z"/>
      <path class="cls-3" d="M474.39,263.74c-.82-4.36,1.78-7.1,7.84-8.11,1.07-.18,2.15-.35,3.22-.52.99-.07,1.99-.13,2.98-.19,1.56-.24,2.57-.86,3.01-1.87.44-1,.47-2.69.09-5.07-.5-3.11-1.48-7.92-2.97-14.44-1.33-4.29-3.35-12.04-6.14-23.23-6.73-27.63-11.75-48.5-14.46-62.7-.98-5.09-1.76-9.75-2.35-13.98-.79-4.66-1.58-9.32-2.38-13.97-1.18-6-2.53-10.95-4.05-14.83-3.65,1.35-6.29,2.17-7.94,2.46-5.67.98-8.98-.66-9.95-5.01-.49-2.17.87-4.4,4.11-6.67,3.24-2.26,7.55-4.23,12.96-5.85,9.36-3,17.85-4.96,25.39-5.94,2.92-.38,5.55.09,7.87,1.39,2.32,1.31,3.63,2.97,3.95,4.99.32,2.02-.19,3.85-1.52,5.5-1.33,1.66-3.18,2.63-5.57,2.93-1.44.18-2.65.25-3.63.19-.96.13-1.91.25-2.87.38-2.39.32-4.05.98-4.97,1.95-.93.97-1.18,2.55-.79,4.74,3.19,17.7,9.41,44.14,17.66,79.47,1.47,6.53,3.85,16.12,6.99,28.78,2.28,8.29,4.02,16.85,5.26,25.65.49,3.48.97,6.97,1.46,10.45,1.16-.33,3.12-.67,5.88-1,8.31-.98,12.84,1.85,13.54,8.29.06.55.12,1.1.18,1.66-2.27,1.81-4.52,3.63-6.75,5.47-.19.02-.82.14-1.87.35-1.05.22-3.03.49-5.92.84-6.13,1.13-10.04,1.87-11.77,2.11-16.69,2.38-25.46,1.27-26.5-4.22Z"/>
      <path class="cls-3" d="M568.09,257.64c-.28-3.6-.57-7.2-.87-10.8-.37-3.13-.67-6.64-.89-10.53-.08-3.15-.16-6.3-.24-9.44-.77-2-3.32-22.19-8.93-60.48-5.67-38.29-9.89-62.81-11.43-73.68-14.04.49-23.09.22-27.2-1.28-2.85-1.22-4.41-2.75-4.66-4.59-.2-1.47.89-2.92,3.29-4.36,2.4-1.43,4.95-2.26,7.65-2.48,6.85-.57,15.23-.82,25.12-.62,9.41.42,17.78.57,25.15.37.98-.03,1.97-.05,2.95-.07.98-.02,1.96-.04,2.95-.06,7.62-.14,11.55,2.08,11.75,6.52.1,2.22-1.04,4.03-3.39,5.45-2.36,1.41-5.1,2.15-8.24,2.21-2.17.04-5.34-.17-9.48-.6-2.44-.3-4.89-.58-7.34-.86-.08.47-.17.93-.25,1.4-.08.47-.17.93-.25,1.4,1.27,16.46,5.39,42.62,11.12,78.58,5.34,33.76,7.78,60.02,8.37,78.71.07,2.22-.91,4.18-2.92,5.9-2.01,1.72-4.27,2.62-6.81,2.71-1.81-1.14-3.63-2.27-5.46-3.4Z"/>
      <path class="cls-3" d="M643.79,258.47c.1-3.61.19-7.22.28-10.84-.04-3.16.04-6.68.23-10.56.26-3.14.51-6.28.76-9.42-.56-2.07-.97-22.42-2.52-61.1-1.61-38.68-3.22-63.52-3.61-74.48-14.12-1.02-23.14-2.25-27.09-4.18-2.72-1.52-4.12-3.2-4.18-5.06-.05-1.48,1.2-2.81,3.76-3.98,2.56-1.17,5.19-1.72,7.92-1.65,6.92.17,15.33.82,25.21,2.07,9.38,1.42,17.75,2.47,25.16,3.07.99.08,1.97.16,2.96.24.99.08,1.97.17,2.96.25,7.65.68,11.35,3.31,11.09,7.75-.13,2.22-1.47,3.9-3.98,5.05-2.51,1.15-5.34,1.58-8.5,1.31-2.18-.19-5.33-.74-9.44-1.61-2.42-.56-4.84-1.1-7.26-1.64-.13.46-.27.91-.4,1.37-.13.46-.27.91-.4,1.37-.48,16.5.87,42.96,2.8,79.33,1.77,34.14,1.44,60.52.05,79.17-.17,2.22-1.36,4.06-3.55,5.55-2.19,1.49-4.56,2.14-7.12,1.96-1.7-1.33-3.4-2.65-5.12-3.97Z"/>
      <path class="cls-3" d="M733.52,120.51c.47-3.87,2.56-10.29,6.37-19.24,3.81-8.95,8.6-17.27,14.45-24.9,6.2-8.51,12.08-12.24,17.42-11.21,4.58.88,6.56,3.37,5.95,7.4-1.16,7.71-4.31,15.91-9.29,24.66-4.98,8.75-10.58,15.93-16.76,21.59-6.4,5.43-11.65,7.83-15.91,7.13-1.85-.68-2.59-2.48-2.24-5.43Z"/>
      <path class="cls-3" d="M783.71,286.59c-1.97-2.45-2.8-5.16-2.47-8.14,1.47-1.24,2.94-2.47,4.41-3.7,1.19.32,2.98,1.19,5.36,2.62,2.82,1.37,5.01,2.28,6.59,2.74,3.55,1.03,7.13.56,10.82-1.42,3.68-1.97,6.92-5.03,9.68-9.21,5.12-7.71,8.73-14.91,10.72-21.66,3.45-11.72,2.72-25.52-2.94-41.34-.74-2.06-1.5-4.12-2.26-6.18-2.63-7.14-4.87-13.46-6.65-18.95-1.78-5.49-3.08-11.22-3.9-17.2-1.13-7.78-.97-15.21.57-22.27,1.75-7.97,5.89-15.7,12.66-23.1,3.33-3.51,7.56-5.97,12.68-7.32,5.12-1.35,10.51-1.19,16.14.49,4.4,1.32,8.22,3.62,11.44,6.87,3.22,3.25,4.41,6.33,3.63,9.19-.44,1.61-1.63,2.59-3.55,2.95-1.92.36-4.08.16-6.47-.59-2.64-.83-5.01-2.14-7.14-3.94-5.34-1.42-10.43.87-15.16,6.83-4.15,5.56-6.67,10.43-7.67,14.58-1.26,5.23-1.48,10.8-.74,16.7.75,5.9,2.13,11.47,4.16,16.72,1.53,4.33,3.03,8.66,4.49,12.99,2.26,7.1,4.41,14.2,6.47,21.31,1.56,5.97,2.22,12.54,1.99,19.7-.24,7.16-1.45,14.09-3.58,20.8-3.43,10.78-9.59,20-18.14,27.89-4.31,4.04-9.39,6.76-15.24,8.23-5.85,1.47-11.74,1.34-17.74-.38-.07.27-.15.54-.22.8-3.33-1.53-5.98-3.52-7.95-5.97Z"/>
    </g>
    <g>
      <path class="cls-3" d="M209.45,905.27c-5.92-6.04-10.58-15.08-13.83-27.06-1.96-7.81-2.57-18.25-1.75-31.29.73-10.57,2.19-20.36,4.31-29.39.33-2.41,1.18-6.5,2.55-12.28.73-3.07,1.46-6.14,2.2-9.2.86-3.61,1.73-7.21,2.61-10.82,1.88-7.75,4.46-16.94,7.76-27.57,3.09-8.95,7.06-17.85,11.83-26.72,4.92-8.64,10.63-15.54,17.07-20.74,6.53-5.57,14.13-8.78,22.84-9.74,5.08-.11,9.72.29,13.93,1.24,8.04,1.8,11.56,5.17,10.56,10.26-.39,2-1.43,3.44-3.12,4.31-1.69.87-3.71,1.05-6.04.54-.78-.17-2.09-.74-3.91-1.72-1.32-.49-2.64-.98-3.96-1.47-3.69-.84-7.21-.58-10.59.8-3.38,1.38-6.51,3.81-9.38,7.29-6.5,7.55-11.8,16.23-15.8,26.11-5.15,12.07-8.93,22.77-11.27,32.11-2.27,8.03-4.41,16.57-6.42,25.62-.54,2.45-1.08,4.89-1.62,7.34-.77,2.48-1.58,5.62-2.41,9.43-2.02,9.25-3.43,18.46-4.18,27.65-1.33,10.76-.72,20.49,1.87,29.16,1.95,9.47,6.81,16.96,14.53,22.36,3.61,2.74,8.33,4.76,14.14,6.02,10.22,2.22,19.43.09,27.44-6.29.69-6.48,1.03-12.88,1.05-19.21,0-6.33-.7-10.77-2.14-13.33-.23-.05-.74-.1-1.53-.17-.8-.06-2-.17-3.59-.31-2.72-.37-5.44-.75-8.15-1.14-7.62-1.63-10.96-5.15-10-10.45.3-1.65,1.67-2.85,4.11-3.64,2.44-.79,5.58-1.05,9.44-.8,6.4.04,12.02.51,16.89,1.47,4.42.87,7.63,2.89,9.67,6.11,2.04,3.21,2.78,6.93,2.19,11.15-.84,6.07-.87,14.55.05,25.45.94,10.72,1.11,19.12.36,25.21-.25,2.03-1.28,3.63-3.1,4.82-1.83,1.18-3.92,1.56-6.27,1.14-5.88-1.07-9.62-3.77-11.18-8.04.01-.09.03-.18.04-.28-2.71.52-5.43,1.02-8.15,1.52-7.48,1.72-13.73,2.02-18.66.96-12.93-2.79-23.11-8.34-30.34-16.42Z"/>
      <path class="cls-3" d="M339.52,932.17c-4.92-3.72-8.78-8.4-11.56-14.04-5.72-12.22-8.54-25.13-8.66-38.65-.65-12.85-.23-25.08,1.16-36.69.27-2.21.59-4.03.99-5.47.2-1.66.4-3.31.6-4.97.11-.92.06-1.4-.15-1.43.2-1.66.41-3.31.61-4.97.9-6.43,1.82-12.85,2.75-19.27.96-5.85,3.01-15.1,6.14-27.74,2.18-8.66,5.67-16.84,10.34-24.57,1.88-3.47,4.03-6,6.45-7.62,2.42-1.62,5.01-2.23,7.78-1.86,7.9,1.07,14.85,3.28,20.93,6.67,6.08,3.4,11.12,7.68,15.15,12.91,3.64,5.01,6.65,10.99,9.07,17.99,2.41,7,4.05,14.33,4.88,22.02.82,7.87,1.04,16.16.63,24.86-.03.74-.07,1.48-.1,2.22-.27,5.74-.4,10.94-.38,15.59-.12,5.29-.23,10.58-.33,15.87-1.81,53.32-17.89,79.27-49.71,75.78-6.12-.69-11.67-2.91-16.59-6.62ZM367.2,924.18c3.63-2.32,6.48-5.72,8.56-10.17,4.86-9.03,7.95-18.99,9.41-29.84,1.61-9.35,2.59-17.45,2.97-24.3.47-8.33.32-19.33-.29-32.98-.35-14.37-.19-25.06.33-32.08.12-1.66.25-3.33.37-4.99.11-7.06-2.02-13.41-6.31-19.08-4.3-5.67-9.79-8.9-16.6-9.74-6.81-.84-11.72,2.13-14.79,9-2.69,5.43-4.59,12.65-5.62,21.67-.4,3.5-.63,6.46-.69,8.88-.28,2.49-.56,4.97-.83,7.46-.68,4.21-1.35,8.42-2.03,12.63-.85,3.81-1.52,8.03-2.01,12.63-1.06,9.96-1.75,19.88-2.05,29.76-.48,13.97.49,27.77,3.06,41.38,2.51,14.17,7.53,21.71,14.75,22.54,4.19.48,8.12-.44,11.75-2.77Z"/>
      <path class="cls-3" d="M464.13,941.9c-4.49-2.04-8.17-4.96-11.01-8.76-5.7-7.96-9.32-16.92-10.93-26.82-1.61-8.6-2.37-18.84-2.29-30.71-.54-20.06-.55-44.56.13-73.46.06-7.14.15-14.27.25-21.41-.17-1.12-.22-2.98-.14-5.57-.19-7.06-.24-11.32-.2-12.81,1.92-3.8,4.05-5.65,6.42-5.55,2.37.1,4.44,1.85,6.26,5.25,1.81,3.4,2.7,7.04,2.64,10.93-.4,25.19-.58,50.4-.56,75.62,0,7.42.78,17.27,2.44,29.56,1.69,15.25,2.68,25.11,2.76,29.56.22,13.72,7.67,20.82,22.21,20.9,17.01.04,21.34-50.04,17.98-149.65-.15-5.19-.3-10.37-.43-15.55-.02-.83-.04-1.67-.06-2.5-.21-.55-.33-1.29-.35-2.22-.05-2.22.44-3.85,1.49-4.88,1.05-1.03,3.13-1.57,6.25-1.64,2.53-.05,4.55.59,6.07,1.94,1.52,1.35,2.51,2.94,2.98,4.78.24,1.1.43,3.23.57,6.38.13,2.96.04,7.69-.26,14.19-.56,5.39-.75,10.03-.56,13.91.2,4.26.18,8.06-.06,11.4-.01,3.89-.02,7.79-.03,11.68.04.74.08,1.48.11,2.22.24.74.4,1.57.44,2.49,4.81,82.09-6.32,123.96-36.94,123.85-5.61-.04-10.68-1.09-15.17-3.12Z"/>
      <path class="cls-3" d="M612.67,925.34c-6.25-9.01-11.16-18.48-14.78-28.37-1.21-3.05-2.41-6.09-3.61-9.14-9.91-25.67-15.44-40.37-17.58-43.91-1.27.11-2.54.21-3.81.32.59,5.35,1.03,10.24,1.31,14.68.57,5.07,1.15,10.13,1.74,15.2,2.87,24.69,7.41,43.76,13.63,57.17-.92,2.6-1.85,5.19-2.79,7.78-3.23.28-6.46.55-9.69.8-1.67-1.26-3.34-2.53-5-3.8-.63-6.18-1.24-12.37-1.85-18.55-1.92-16.59-5.82-41.68-11.01-75.32-5.17-35.87-7.91-61.03-9.04-75.44-.68-8.87,2.21-13.49,8.6-13.96,10.47-.78,19.26,1.01,26.55,5.48,7.29,4.47,11.57,11.24,12.75,20.43.82,6.43,1.66,12.86,2.51,19.29.36,2.76.28,5.98-.26,9.68-.55,3.7-1.29,6.71-2.24,9.05-1.52,3.52-3.06,7.03-4.61,10.55-1.31,2.93-2.64,5.86-3.97,8.78.8,2.16,1.61,4.31,2.42,6.47,2.31,6.38,4.67,12.76,7.07,19.12,4.94,13.84,9.59,24.98,13.81,33.46,4.22,8.48,9.07,16.03,14.56,22.64.86,1.01,1.72,2.03,2.59,3.04,2.88,3.38,4.54,6.15,4.92,8.34.32,1.83-.08,3.52-1.21,5.06-1.13,1.55-2.85,2.47-5.15,2.75-5.05.62-10.39-3.24-15.85-11.59ZM582.47,812.85c2.13-9.41,2.69-17.98,1.81-25.71-.68-5.89-2.1-11.33-4.23-16.34-1.31-2.85-3.17-4.96-5.58-6.32-2.41-1.36-5.28-1.91-8.6-1.64-.15.48-.31.95-.46,1.43-.12.85-.24,1.69-.36,2.54,1.21,10.87,2.46,21.73,3.75,32.59,1.37,9.56,2.66,19.95,3.88,31.19,4.38-2.4,7.66-8.33,9.79-17.74Z"/>
      <path class="cls-3" d="M792.65,896.67c-1.83-5.65-3.65-11.3-5.46-16.96-1.81-5.66-3.6-11.31-5.39-16.98-2.79-8.85-7.17-20.23-12.98-34.21-6.56-15.69-10.6-26.6-12.38-32.65-1.42-5.57-2.83-11.14-4.23-16.71-1-4.91-2.37-10.39-4.11-16.45-.12,2.53.25,15.67.78,39.46.31,23.08-.25,44.63-1.72,64.63-1.46,19.24-4.45,29.35-8.63,30.3-4.19.95-7.83.66-10.89-.85-3.07-1.51-5.06-4.07-5.97-7.67-1.99-7.92-10.26-23.86-23.69-48.19-13.41-24.34-24.31-44.35-33.3-59.87,1.43,10.38,2.87,20.75,4.33,31.13,3.62,26.27,6.97,48.08,10.01,65.42,3.14,16.77,5.44,28.23,6.8,34.38.32,1.45.73,2.79,1.24,4.02.28,1.27.57,2.54.85,3.81.69,3.08.41,5.53-.82,7.35-1.24,1.82-4.03,3.11-8.35,3.83-2.28.38-4.58.06-6.92-.97-2.33-1.03-3.66-2.37-4-4.01-3.81-18.55-7.69-46.66-11.61-84.32-3.93-37.66-7.51-65.8-10.77-84.4-1.45-1.45-2.32-3.09-2.64-4.92-.38-2.19.43-4.05,2.43-5.6,1.99-1.55,4.5-2.58,7.55-3.11,2.49-.43,8.54,7.35,18.81,23.13,10.29,15.78,21.47,33.66,33.77,53.6,12.31,19.93,21.16,34.27,25.8,43.29.42-5.23.61-10.03.57-14.4.06-2.3.12-4.59.17-6.89.02-26.65.41-50.86,1.18-72.64.37-13.27,1.27-23.83,2.74-31.69,1.33-8.39,3.33-12.96,6.11-13.72,2.59-.71,5.14-.7,7.66.03,2.51.73,4.09,2.16,4.72,4.29,3.79,12.78,10.05,31.8,19.18,56.93,8.78,23.31,15.5,41.43,19.78,54.46,1.43,4.7,2.87,9.4,4.31,14.09,1.34,4.73,2.68,9.45,4.03,14.18.71,2.11,2.09,5.18,4.16,9.21,1.36,2.98,2.74,5.96,4.11,8.94.75,1.52,1.34,2.7,1.75,3.54.41.85.65,1.36.71,1.53,1.87,1.96,3,3.46,3.37,4.51,1.03,2.98.85,5.94-.57,8.87-1.42,2.93-3.7,4.86-6.81,5.75-6.9,1.98-12.16-2.54-15.7-13.49Z"/>
      <path class="cls-3" d="M863.01,878.81c-2.88-.77-4.86-2.24-5.95-4.42-.88-2.25-1.75-4.49-2.63-6.74-.67-1.73-1.34-3.46-2.02-5.19-.82-1.48-1.63-3.26-2.43-5.34-1.4-3.64-3.85-9.07-7.31-16.31-2.32-5.48-4.62-10.96-6.91-16.45-3.19-8.51-7.61-21.3-13.2-38.38-4.76-15.41-8.96-28.26-12.63-38.56-.87-2.44-2.46-6.01-4.75-10.71-2.35-4.87-3.91-8.45-4.7-10.73-4.32-12.43-2.62-19.9,4.94-22.55,5.96-2.09,13.24-3.43,21.91-4.13,8.67-.7,13.64.4,14.89,3.5.69,1.72.57,3.61-.39,5.67-.96,2.06-2.36,3.94-4.2,5.64-8.68.34-16.27,1.15-22.81,2.5,1.14,2.54,2.61,6.25,4.41,11.11,2.58,6.95,4.82,13.23,6.71,18.84,2.56,8.53,4.63,14.87,6.21,19.03.82,1.28,1.63,2.57,2.45,3.85,1.52-.64,3.03-1.28,4.54-1.93,1.48-.73,3.38-1.52,5.69-2.38,9.24-3.42,14.81-2.82,16.8,1.98.78,1.89.56,3.8-.66,5.76-1.22,1.95-3.2,3.45-5.93,4.48-3.51,1.32-6.32,2.16-8.41,2.52-2.45.89-4.9,1.78-7.35,2.65,2.12,4.36,4.86,10.86,8.24,19.49,3.38,8.64,6.34,16.44,8.87,23.4,3.56,10.74,6.39,18.68,8.47,23.84,3.88,9.64,6.06,14.37,6.48,14.22,3.47-1.35,6.93-2.71,10.39-4.1,3.52-1.5,7.82-3.22,12.87-5.17,7.99-3.09,12.87-2.66,14.7,1.4,1.07,2.37.56,4.72-1.52,7.04-2.09,2.32-5.05,4.23-8.89,5.7-9.07,3.49-18.18,6.85-27.34,10.11-2.8,1-5.65,1.11-8.53.34Z"/>
      <path class="cls-3" d="M961.21,833.38c-1.75-3.18-3.49-6.35-5.23-9.53-1.63-2.72-3.32-5.82-5.08-9.3-1.32-2.86-2.63-5.73-3.95-8.59-1.48-1.56-12.24-18.97-31.21-52.7-18.91-33.76-30.32-55.75-35.2-65.53-10.42,4.2-17.47,5.92-21.04,5.4-2.54-.55-4.16-1.68-4.88-3.39-.57-1.36-.16-2.98,1.22-4.86,1.38-1.88,3.03-3.22,4.96-4.04,4.91-2.08,11.01-4.3,18.28-6.75,7-2.12,13.09-4.43,18.27-6.88.69-.33,1.38-.65,2.07-.98.69-.33,1.38-.66,2.07-.99,5.33-2.56,8.98-1.88,10.97,2.09.99,1.99.94,4.03-.18,6.12-1.12,2.09-2.82,3.68-5.09,4.77-1.57.75-3.97,1.59-7.19,2.48-1.91.49-3.83.97-5.74,1.45.11.46.22.92.33,1.38.11.46.22.92.33,1.38,7.06,14.9,19.8,37.99,39.2,68.81,18.24,28.9,32.15,51.44,40.9,68.01,1.04,1.97.88,4.2-.49,6.7-1.38,2.5-3.41,4.38-6.09,5.63-2.41-.21-4.82-.42-7.23-.64Z"/>
    </g>
  </g>
</svg>